<svg width="400" height="400" viewBox="0 0 400 400" fill="none" xmlns="http://www.w3.org/2000/svg">
<rect width="400" height="400" fill="#11157C"/>
<g clip-path="url(#clip0_853_1272)">
<path d="M211.251 145.5C200.064 145.5 189.722 149.764 180.95 156.602C184.91 155.428 188.87 154.821 192.652 154.821C205.289 154.821 220.907 164.246 226.57 170.762L215.879 172.542L213.323 178.051C213.323 174.161 209.973 171.897 206.458 171.897C189.06 171.897 171.345 201.7 171.345 217.73C171.345 219.349 171.504 221.291 172.139 222.91C167.035 215.298 164.321 205.744 164.321 196.346C164.321 192.785 164.804 189.166 165.732 185.644C165.649 185.644 165.567 185.65 165.484 185.65C163.285 185.65 161.187 185.437 159.236 185.024C155.237 194.075 153 203.712 153 212.873C153 234.573 165.764 254.494 188.749 254.494C221.466 254.494 247 217.891 247 186.953C247 165.42 234.23 145.5 211.251 145.5ZM228.331 173.032C231.045 176.754 233.435 180.967 235.031 185.502C232.475 192.63 227.053 201.048 222.426 201.048C220.512 201.048 219.394 200.403 219.394 198.132C219.394 193.436 225.14 180.154 228.331 173.026V173.032ZM208.06 176.593C210.456 176.593 210.774 179.509 210.774 181.451C210.774 187.766 201.837 205.744 194.654 205.744C191.94 205.744 191.304 202.829 191.304 200.564C191.304 193.436 199.924 176.593 208.06 176.593ZM201.519 239.76C191.304 239.76 182.844 235.386 176.462 228.587C177.263 228.909 178.216 229.232 179.176 229.232C188.59 229.232 199.282 213.524 202.797 205.751L203.274 205.912C202.638 208.015 201.996 210.931 201.996 213.847C201.996 218.543 203.591 223.078 208.378 223.078C219.228 223.078 230.562 206.719 236.626 191.172C237.427 194.41 237.745 197.649 237.745 200.887C237.745 221.459 222.426 239.76 201.519 239.76Z" fill="#ED5C40"/>
<path d="M203.337 158.982C196.421 155.538 185.52 156.022 174.885 160.956C164.257 165.885 156.769 173.929 154.805 181.483C154.805 181.496 154.805 181.509 154.818 181.515C161.734 184.954 172.622 184.463 183.251 179.535C193.879 174.606 201.379 166.549 203.337 158.989V158.982Z" fill="#1CED99"/>
</g>
<defs>
<clipPath id="clip0_853_1272">
<rect width="94" height="109" fill="white" transform="translate(153 145.5)"/>
</clipPath>
</defs>
</svg>
