<svg width="571" height="93" viewBox="0 0 571 93" fill="none" xmlns="http://www.w3.org/2000/svg">
<path d="M58.649 1.73233L60.3813 22.9153H58.649C56.9003 17.636 54.6401 13.6601 51.8685 10.9875C47.8761 7.12705 42.7453 5.19683 36.4762 5.19683C27.9305 5.19683 21.4304 8.57884 16.9761 15.3429C13.2476 21.051 11.3834 27.8481 11.3834 35.7339C11.3834 42.135 12.6207 47.9751 15.0953 53.2544C17.57 58.5336 20.8035 62.4106 24.7959 64.8852C28.8213 67.3268 32.9457 68.5477 37.1691 68.5477C39.6438 68.5477 42.0359 68.2342 44.3456 67.6073C46.6553 66.9804 48.8824 66.0565 51.0271 64.8357V45.4345C51.0271 42.069 50.7632 39.8748 50.2352 38.852C49.7403 37.7961 48.9484 37.0042 47.8596 36.4763C46.8037 35.9154 44.923 35.6349 42.2174 35.6349V33.7542H68.2011V35.6349H66.9638C64.3902 35.6349 62.625 36.4928 61.6681 38.2086C61.0082 39.4294 60.6782 41.838 60.6782 45.4345V65.974C56.8838 68.0197 53.1388 69.521 49.4434 70.4779C45.7479 71.4348 41.64 71.9132 37.1196 71.9132C24.1525 71.9132 14.3034 67.7558 7.57241 59.441C2.52414 53.2049 8.16584e-06 46.0119 8.16584e-06 37.8621C8.16584e-06 31.956 1.4188 26.2973 4.25639 20.8861C7.62191 14.452 12.2412 9.50271 18.1144 6.03821C23.0307 3.16762 28.8378 1.73233 35.5359 1.73233C37.9775 1.73233 40.1882 1.9303 42.1679 2.32625C44.1806 2.72219 47.0182 3.59656 50.6807 4.94937C52.5284 5.64227 53.7657 5.98872 54.3926 5.98872C55.0196 5.98872 55.5475 5.70826 55.9764 5.14734C56.4383 4.55342 56.7188 3.41509 56.8178 1.73233H58.649ZM109.14 25.5879L99.4885 59.144L98.3997 63.6479C98.3007 64.0768 98.2512 64.4398 98.2512 64.7367C98.2512 65.2646 98.4162 65.7266 98.7461 66.1225C99.0101 66.4195 99.3401 66.568 99.736 66.568C100.165 66.568 100.726 66.304 101.419 65.7761C102.706 64.8192 104.421 62.8395 106.566 59.8369L108.249 61.0248C105.972 64.4563 103.629 67.0794 101.221 68.8941C98.8121 70.6759 96.585 71.5667 94.5393 71.5667C93.1205 71.5667 92.0481 71.2038 91.3222 70.4779C90.6293 69.785 90.2829 68.7621 90.2829 67.4093C90.2829 65.7926 90.6458 63.6644 91.3717 61.0248L92.4111 57.3128C88.0887 62.955 84.1128 66.8979 80.4833 69.1416C77.8767 70.7584 75.3195 71.5667 72.8119 71.5667C70.4032 71.5667 68.3245 70.5769 66.5758 68.5972C64.827 66.5845 63.9527 63.8294 63.9527 60.3319C63.9527 55.0856 65.5199 49.5589 68.6545 43.7518C71.822 37.9116 75.831 33.2428 80.6813 29.7453C84.4757 26.9737 88.0557 25.5879 91.4212 25.5879C93.4339 25.5879 95.1002 26.1158 96.42 27.1717C97.7728 28.2275 98.7956 29.9762 99.4885 32.4179L101.27 26.7757L109.14 25.5879ZM91.5202 28.1615C89.4085 28.1615 87.1648 29.1514 84.7892 31.1311C81.4236 33.9357 78.4211 38.0931 75.7815 43.6033C73.1748 49.1135 71.8715 54.0958 71.8715 58.5501C71.8715 60.7938 72.4324 62.5755 73.5543 63.8953C74.6761 65.1822 75.9629 65.8256 77.4147 65.8256C81.0112 65.8256 84.9211 63.1694 89.1445 57.8572C94.7867 50.7962 97.6078 43.5538 97.6078 36.1299C97.6078 33.3253 97.0634 31.2961 95.9745 30.0422C94.8857 28.7884 93.4009 28.1615 91.5202 28.1615ZM119.739 32.8633C124.127 26.7592 128.862 23.7072 133.943 23.7072C138.596 23.7072 142.654 25.7034 146.119 29.6958C149.583 33.6552 151.315 39.0829 151.315 45.9789C151.315 54.0298 148.643 60.5133 143.298 65.4296C138.711 69.653 133.597 71.7647 127.955 71.7647C125.315 71.7647 122.626 71.2863 119.888 70.3294C117.182 69.3726 114.41 67.9373 111.573 66.0235V19.0548C111.573 13.9076 111.441 10.74 111.177 9.5522C110.946 8.36437 110.566 7.55599 110.038 7.12705C109.511 6.69811 108.851 6.48365 108.059 6.48365C107.135 6.48365 105.98 6.74761 104.594 7.27553L103.901 5.54328L117.512 8.28654e-05H119.739V32.8633ZM119.739 36.0309V63.153C121.422 64.8027 123.154 66.0565 124.936 66.9144C126.751 67.7393 128.598 68.1517 130.479 68.1517C133.482 68.1517 136.27 66.502 138.843 63.2024C141.45 59.9029 142.753 55.1021 142.753 48.8C142.753 42.9929 141.45 38.5385 138.843 35.437C136.27 32.3024 133.333 30.7351 130.034 30.7351C128.285 30.7351 126.536 31.1806 124.787 32.0714C123.467 32.7313 121.785 34.0512 119.739 36.0309ZM163.152 23.7072V33.9027C166.947 27.1057 170.84 23.7072 174.832 23.7072C176.647 23.7072 178.149 24.2681 179.336 25.3899C180.524 26.4788 181.118 27.7491 181.118 29.2009C181.118 30.4877 180.689 31.5765 179.831 32.4674C178.973 33.3583 177.951 33.8037 176.763 33.8037C175.608 33.8037 174.305 33.2428 172.853 32.1209C171.434 30.9661 170.378 30.3887 169.685 30.3887C169.091 30.3887 168.448 30.7186 167.755 31.3785C166.27 32.7313 164.736 34.9585 163.152 38.0601V59.7874C163.152 62.2951 163.466 64.1923 164.093 65.4791C164.521 66.37 165.28 67.1124 166.369 67.7063C167.458 68.3002 169.025 68.5972 171.071 68.5972V70.3789H147.859V68.5972C150.169 68.5972 151.884 68.2342 153.006 67.5083C153.831 66.9804 154.408 66.139 154.738 64.9842C154.903 64.4233 154.986 62.823 154.986 60.1834V42.6134C154.986 37.3342 154.87 34.1996 154.639 33.2098C154.441 32.1869 154.045 31.4445 153.452 30.9826C152.891 30.5207 152.181 30.2897 151.323 30.2897C150.301 30.2897 149.146 30.5372 147.859 31.0321L147.364 29.2504L161.073 23.7072H163.152ZM195.033 5.93922C196.419 5.93922 197.591 6.41765 198.547 7.37452C199.504 8.33138 199.983 9.50271 199.983 10.8885C199.983 12.2413 199.488 13.4126 198.498 14.4025C197.541 15.3594 196.386 15.8378 195.033 15.8378C193.681 15.8378 192.509 15.3594 191.519 14.4025C190.563 13.4126 190.084 12.2413 190.084 10.8885C190.084 9.50271 190.563 8.33138 191.519 7.37452C192.476 6.41765 193.648 5.93922 195.033 5.93922ZM195.677 25.5879L185.877 60.2824C185.217 62.625 184.887 64.0273 184.887 64.4893C184.887 65.0172 185.036 65.4461 185.333 65.7761C185.663 66.106 186.042 66.271 186.471 66.271C186.966 66.271 187.56 66.007 188.253 65.4791C190.134 63.9943 192.031 61.8826 193.945 59.144L195.677 60.2824C193.433 63.7139 190.794 66.601 187.758 68.9436C185.514 70.6924 183.37 71.5667 181.324 71.5667C179.971 71.5667 178.866 71.1708 178.008 70.3789C177.15 69.554 176.721 68.5312 176.721 67.3103C176.721 66.0895 177.134 64.0603 177.958 61.2227L184.393 39.0499C185.448 35.4205 185.976 33.1438 185.976 32.2199C185.976 31.494 185.712 30.9001 185.184 30.4382C184.689 29.9762 183.997 29.7453 183.106 29.7453C182.38 29.7453 180.879 29.9268 178.602 30.2897V28.3595L195.677 25.5879ZM203.257 42.1185C203.224 48.8495 204.857 54.1288 208.157 57.9562C211.457 61.7836 215.333 63.6974 219.788 63.6974C222.757 63.6974 225.331 62.889 227.509 61.2722C229.719 59.6225 231.567 56.8179 233.052 52.8584L234.586 53.8483C233.893 58.3686 231.881 62.493 228.548 66.2215C225.216 69.917 221.042 71.7647 216.026 71.7647C210.582 71.7647 205.913 69.653 202.02 65.4296C198.159 61.1732 196.229 55.4651 196.229 48.3051C196.229 40.5512 198.209 34.5131 202.168 30.1907C206.161 25.8353 211.16 23.6577 217.165 23.6577C222.246 23.6577 226.42 25.3404 229.686 28.7059C232.953 32.0385 234.586 36.5093 234.586 42.1185H203.257ZM203.257 39.2479H224.242C224.077 36.3443 223.731 34.2986 223.203 33.1108C222.378 31.2631 221.141 29.8113 219.491 28.7554C217.874 27.6996 216.175 27.1717 214.393 27.1717C211.654 27.1717 209.196 28.244 207.019 30.3887C204.874 32.5004 203.62 35.4535 203.257 39.2479ZM248.155 8.28654e-05V60.1339C248.155 62.9715 248.353 64.8522 248.749 65.7761C249.178 66.6999 249.821 67.4093 250.679 67.9043C251.537 68.3662 253.137 68.5972 255.48 68.5972V70.3789H233.258V68.5972C235.336 68.5972 236.755 68.3827 237.514 67.9538C238.273 67.5248 238.867 66.8154 239.296 65.8256C239.725 64.8357 239.939 62.9385 239.939 60.1339V18.9558C239.939 13.8416 239.824 10.707 239.593 9.5522C239.362 8.36437 238.982 7.55599 238.455 7.12705C237.96 6.69811 237.316 6.48365 236.524 6.48365C235.666 6.48365 234.578 6.74761 233.258 7.27553L232.416 5.54328L245.928 8.28654e-05H248.155ZM287.468 6.92908V33.3088H299.693C302.498 33.3088 304.543 32.6984 305.83 31.4775C307.15 30.2237 308.024 27.7656 308.453 24.1031H310.285V46.8203H308.453C308.42 44.2137 308.074 42.3 307.414 41.0791C306.787 39.8583 305.896 38.951 304.741 38.357C303.619 37.7301 301.937 37.4167 299.693 37.4167H287.468V58.5006C287.468 61.8991 287.683 64.1428 288.112 65.2317C288.442 66.0565 289.135 66.7659 290.19 67.3598C291.642 68.1517 293.16 68.5477 294.744 68.5477H297.169V70.3789H268.364V68.5477H270.74C273.511 68.5477 275.524 67.7393 276.778 66.1225C277.57 65.0667 277.966 62.526 277.966 58.5006V15.1449C277.966 11.7464 277.751 9.50271 277.322 8.41387C276.992 7.58899 276.316 6.87959 275.293 6.28567C273.874 5.49379 272.356 5.09785 270.74 5.09785H268.364V3.26661H318.302L318.946 18.0155H317.214C316.356 14.8809 315.349 12.5878 314.194 11.136C313.073 9.65119 311.67 8.57884 309.988 7.91894C308.338 7.25903 305.764 6.92908 302.267 6.92908H287.468ZM329.743 8.28654e-05C331.129 8.28654e-05 332.3 0.495011 333.257 1.48487C334.247 2.44173 334.742 3.61306 334.742 4.99886C334.742 6.38466 334.247 7.57249 333.257 8.56234C332.3 9.5522 331.129 10.0471 329.743 10.0471C328.357 10.0471 327.169 9.5522 326.18 8.56234C325.19 7.57249 324.695 6.38466 324.695 4.99886C324.695 3.61306 325.173 2.44173 326.13 1.48487C327.12 0.495011 328.324 8.28654e-05 329.743 8.28654e-05ZM333.851 23.7072V60.1339C333.851 62.9715 334.049 64.8687 334.445 65.8256C334.874 66.7494 335.484 67.4423 336.276 67.9043C337.101 68.3662 338.586 68.5972 340.731 68.5972V70.3789H318.706V68.5972C320.917 68.5972 322.402 68.3827 323.161 67.9538C323.919 67.5248 324.513 66.8154 324.942 65.8256C325.404 64.8357 325.635 62.9385 325.635 60.1339V42.6629C325.635 37.7466 325.487 34.5626 325.19 33.1108C324.959 32.0549 324.596 31.3291 324.101 30.9331C323.606 30.5042 322.93 30.2897 322.072 30.2897C321.148 30.2897 320.026 30.5372 318.706 31.0321L318.013 29.2504L331.673 23.7072H333.851ZM350.439 53.8483C347.667 52.4955 345.539 50.6148 344.054 48.2061C342.57 45.7645 341.827 43.0754 341.827 40.1388C341.827 35.6514 343.51 31.791 346.876 28.5575C350.274 25.3239 354.613 23.7072 359.892 23.7072C364.215 23.7072 367.96 24.763 371.127 26.8747H380.729C382.147 26.8747 382.972 26.9242 383.203 27.0232C383.434 27.0892 383.599 27.2211 383.698 27.4191C383.896 27.7161 383.995 28.244 383.995 29.0029C383.995 29.8608 383.913 30.4547 383.748 30.7846C383.649 30.9496 383.467 31.0816 383.203 31.1806C382.972 31.2796 382.147 31.3291 380.729 31.3291H374.839C376.687 33.7047 377.611 36.7403 377.611 40.4357C377.611 44.6591 375.994 48.2721 372.76 51.2747C369.527 54.2772 365.188 55.7785 359.744 55.7785C357.5 55.7785 355.207 55.4486 352.864 54.7887C351.412 56.0425 350.423 57.1478 349.895 58.1047C349.4 59.0285 349.152 59.8204 349.152 60.4803C349.152 61.0413 349.416 61.5857 349.944 62.1136C350.505 62.6415 351.577 63.021 353.161 63.2519C354.085 63.3839 356.395 63.4994 360.09 63.5984C366.887 63.7634 371.292 63.9943 373.305 64.2913C376.373 64.7202 378.815 65.8586 380.63 67.7063C382.477 69.554 383.401 71.8307 383.401 74.5363C383.401 78.2648 381.653 81.7623 378.155 85.0288C373.008 89.8461 366.293 92.2547 358.011 92.2547C351.643 92.2547 346.265 90.8195 341.877 87.9489C339.402 86.2991 338.165 84.5834 338.165 82.8016C338.165 82.0097 338.346 81.2178 338.709 80.426C339.27 79.2051 340.425 77.5059 342.174 75.3282C342.405 75.0312 344.087 73.2495 347.222 69.983C345.506 68.9601 344.285 68.0527 343.56 67.2609C342.867 66.436 342.52 65.5121 342.52 64.4893C342.52 63.3344 342.982 61.9816 343.906 60.4308C344.863 58.8801 347.041 56.6859 350.439 53.8483ZM359.051 26.0828C356.609 26.0828 354.563 27.0562 352.914 29.0029C351.264 30.9496 350.439 33.9357 350.439 37.9611C350.439 43.1743 351.561 47.2163 353.805 50.0868C355.52 52.2645 357.698 53.3534 360.338 53.3534C362.845 53.3534 364.907 52.413 366.524 50.5323C368.141 48.6515 368.949 45.6985 368.949 41.6731C368.949 36.4268 367.811 32.3189 365.534 29.3493C363.852 27.1717 361.69 26.0828 359.051 26.0828ZM349.944 70.3789C348.393 72.0617 347.222 73.6289 346.43 75.0807C345.638 76.5325 345.242 77.8688 345.242 79.0896C345.242 80.6734 346.199 82.0592 348.113 83.247C351.412 85.2927 356.18 86.3156 362.416 86.3156C368.355 86.3156 372.727 85.2598 375.532 83.1481C378.37 81.0694 379.788 78.8422 379.788 76.4665C379.788 74.7508 378.947 73.53 377.264 72.8041C375.548 72.0782 372.15 71.6492 367.069 71.5172C359.645 71.3193 353.937 70.9398 349.944 70.3789ZM425.429 26.7757L416.817 56.2734C415.53 60.6618 414.887 63.4334 414.887 64.5882C414.887 65.1822 414.986 65.6276 415.184 65.9246C415.415 66.1885 415.712 66.3205 416.074 66.3205C416.635 66.3205 417.246 66.073 417.906 65.5781C418.599 65.0502 420.314 63.0045 423.053 59.441L424.538 60.5793C421.931 64.7037 419.258 67.7393 416.52 69.686C414.705 70.9398 412.956 71.5667 411.274 71.5667C409.987 71.5667 408.98 71.2038 408.255 70.4779C407.529 69.752 407.166 68.8116 407.166 67.6568C407.166 66.535 407.38 65.0502 407.809 63.2024C408.337 60.7608 409.838 55.4486 412.313 47.2657C406.704 56.4714 402.002 62.823 398.208 66.3205C394.446 69.818 390.949 71.5667 387.715 71.5667C386.197 71.5667 384.91 71.0388 383.855 69.983C382.799 68.9271 382.271 67.5908 382.271 65.974C382.271 63.4994 382.997 59.7049 384.449 54.5907L388.754 39.2974C389.81 35.6349 390.338 33.3583 390.338 32.4674C390.338 32.0714 390.19 31.7415 389.893 31.4775C389.629 31.1806 389.332 31.0321 389.002 31.0321C388.309 31.0321 387.616 31.2796 386.923 31.7745C386.23 32.2694 384.663 34.1007 382.221 37.2682L380.687 36.1794C383.162 32.3519 385.785 29.5308 388.556 27.7161C390.668 26.2973 392.615 25.5879 394.397 25.5879C395.617 25.5879 396.607 25.9838 397.366 26.7757C398.158 27.5346 398.554 28.5245 398.554 29.7453C398.554 31.527 397.894 34.7111 396.574 39.2974L391.922 55.2836C390.635 59.639 389.992 62.3941 389.992 63.5489C389.992 64.1758 390.19 64.6872 390.586 65.0832C391.015 65.4461 391.575 65.6276 392.268 65.6276C393.357 65.6276 394.776 65.0832 396.525 63.9943C398.274 62.9055 400.6 60.4968 403.503 56.7684C406.44 53.0069 408.848 49.4929 410.729 46.2264C412.643 42.9269 414.672 37.6971 416.817 30.5372L417.906 26.7757H425.429ZM431.079 42.1185C431.046 48.8495 432.679 54.1288 435.979 57.9562C439.278 61.7836 443.155 63.6974 447.609 63.6974C450.579 63.6974 453.153 62.889 455.33 61.2722C457.541 59.6225 459.389 56.8179 460.873 52.8584L462.408 53.8483C461.715 58.3686 459.702 62.493 456.37 66.2215C453.037 69.917 448.863 71.7647 443.848 71.7647C438.404 71.7647 433.735 69.653 429.841 65.4296C425.981 61.1732 424.051 55.4651 424.051 48.3051C424.051 40.5512 426.03 34.5131 429.99 30.1907C433.982 25.8353 438.981 23.6577 444.986 23.6577C450.067 23.6577 454.241 25.3404 457.508 28.7059C460.774 32.0385 462.408 36.5093 462.408 42.1185H431.079ZM431.079 39.2479H452.064C451.899 36.3443 451.552 34.2986 451.024 33.1108C450.199 31.2631 448.962 29.8113 447.312 28.7554C445.696 27.6996 443.996 27.1717 442.215 27.1717C439.476 27.1717 437.018 28.244 434.84 30.3887C432.695 32.5004 431.442 35.4535 431.079 39.2479ZM473.65 23.7072V33.9027C477.445 27.1057 481.338 23.7072 485.331 23.7072C487.146 23.7072 488.647 24.2681 489.835 25.3899C491.022 26.4788 491.616 27.7491 491.616 29.2009C491.616 30.4877 491.187 31.5765 490.33 32.4674C489.472 33.3583 488.449 33.8037 487.261 33.8037C486.106 33.8037 484.803 33.2428 483.351 32.1209C481.932 30.9661 480.876 30.3887 480.184 30.3887C479.59 30.3887 478.946 30.7186 478.253 31.3785C476.769 32.7313 475.234 34.9585 473.65 38.0601V59.7874C473.65 62.2951 473.964 64.1923 474.591 65.4791C475.02 66.37 475.779 67.1124 476.868 67.7063C477.956 68.3002 479.524 68.5972 481.569 68.5972V70.3789H458.357V68.5972C460.667 68.5972 462.383 68.2342 463.504 67.5083C464.329 66.9804 464.907 66.139 465.237 64.9842C465.402 64.4233 465.484 62.823 465.484 60.1834V42.6134C465.484 37.3342 465.369 34.1996 465.138 33.2098C464.94 32.1869 464.544 31.4445 463.95 30.9826C463.389 30.5207 462.68 30.2897 461.822 30.2897C460.799 30.2897 459.644 30.5372 458.357 31.0321L457.862 29.2504L471.572 23.7072H473.65ZM529.734 41.0791C529.734 46.0284 528.414 50.9282 525.774 55.7785C523.168 60.6288 519.522 64.4728 514.836 67.3103C510.151 70.1479 505.598 71.5667 501.176 71.5667C496.656 71.5667 492.961 70.1314 490.09 67.2609C487.252 64.3573 485.834 60.6123 485.834 56.026C485.834 51.1757 487.219 46.3089 489.991 41.4256C492.796 36.5423 496.524 32.6819 501.176 29.8443C505.862 27.0067 510.382 25.5879 514.737 25.5879C519.093 25.5879 522.673 27.0232 525.477 29.8938C528.315 32.7643 529.734 36.4928 529.734 41.0791ZM521.518 37.6641C521.518 34.5956 520.759 32.2529 519.241 30.6362C517.756 28.9864 515.826 28.1615 513.451 28.1615C508.6 28.1615 504.129 31.6425 500.038 38.6045C495.98 45.5335 493.95 52.4295 493.95 59.2925C493.95 62.4271 494.742 64.8522 496.326 66.568C497.91 68.2507 499.906 69.0921 502.315 69.0921C506.967 69.0921 511.322 65.6441 515.381 58.7481C519.472 51.8191 521.518 44.7911 521.518 37.6641ZM554.29 63.8459C549.638 67.4423 546.718 69.521 545.53 70.0819C543.748 70.9068 541.851 71.3193 539.838 71.3193C536.704 71.3193 534.114 70.2469 532.068 68.1022C530.055 65.9575 529.049 63.1365 529.049 59.639C529.049 57.4283 529.544 55.5146 530.534 53.8978C531.886 51.6541 534.229 49.5424 537.562 47.5627C540.927 45.583 546.503 43.1743 554.29 40.3368V38.555C554.29 34.0347 553.564 30.9331 552.112 29.2504C550.694 27.5676 548.615 26.7262 545.876 26.7262C543.798 26.7262 542.148 27.2871 540.927 28.409C539.673 29.5308 539.046 30.8176 539.046 32.2694L539.145 35.14C539.145 36.6578 538.749 37.8291 537.957 38.654C537.199 39.4789 536.192 39.8913 534.938 39.8913C533.718 39.8913 532.711 39.4624 531.919 38.6045C531.16 37.7466 530.781 36.5753 530.781 35.0905C530.781 32.2529 532.233 29.6463 535.136 27.2706C538.04 24.895 542.115 23.7072 547.361 23.7072C551.387 23.7072 554.686 24.3836 557.26 25.7364C559.206 26.7592 560.642 28.3595 561.566 30.5372C562.159 31.956 562.456 34.8595 562.456 39.2479V54.6402C562.456 58.9626 562.539 61.6187 562.704 62.6085C562.869 63.5654 563.133 64.2088 563.496 64.5388C563.892 64.8687 564.337 65.0337 564.832 65.0337C565.36 65.0337 565.822 64.9182 566.218 64.6872C566.911 64.2583 568.247 63.054 570.227 61.0743V63.8459C566.531 68.7951 563.001 71.2698 559.635 71.2698C558.019 71.2698 556.732 70.7089 555.775 69.587C554.818 68.4652 554.323 66.5515 554.29 63.8459ZM554.29 60.6288V43.3558C549.308 45.3355 546.091 46.7378 544.639 47.5627C542.032 49.0145 540.168 50.5323 539.046 52.116C537.924 53.6998 537.364 55.4321 537.364 57.3128C537.364 59.6885 538.073 61.6682 539.492 63.2519C540.911 64.8027 542.544 65.5781 544.392 65.5781C546.899 65.5781 550.199 63.9283 554.29 60.6288Z" fill="#95FF00"/>
</svg>
