<svg width="400" height="400" viewBox="0 0 400 400" fill="none" xmlns="http://www.w3.org/2000/svg">
<rect width="400" height="400" fill="#9D9D9D"/>
<path opacity="0.5" d="M123.904 186.664C126.208 186.664 128.128 187 129.664 187.672C131.232 188.312 132.4 189.192 133.168 190.312C133.968 191.432 134.368 192.696 134.368 194.104C134.368 195.64 133.984 196.952 133.216 198.04C132.448 199.096 131.2 199.976 129.472 200.68L128.512 200.152C130.72 200.568 132.336 201.4 133.36 202.648C134.384 203.896 134.896 205.272 134.896 206.776C134.896 208.024 134.656 209.096 134.176 209.992C133.696 210.856 133.024 211.576 132.16 212.152C131.296 212.728 130.256 213.16 129.04 213.448C127.824 213.704 126.496 213.832 125.056 213.832H121.024V210.472H124.336C125.648 210.472 126.72 210.392 127.552 210.232C128.416 210.072 129.088 209.784 129.568 209.368C129.952 209.048 130.24 208.664 130.432 208.216C130.624 207.736 130.72 207.144 130.72 206.44C130.72 205.8 130.592 205.224 130.336 204.712C130.08 204.2 129.68 203.752 129.136 203.368C128.656 203.048 128.016 202.792 127.216 202.6C126.448 202.408 125.264 202.312 123.664 202.312H121.456V198.952H123.616C124.832 198.952 125.904 198.84 126.832 198.616C127.76 198.392 128.496 198.008 129.04 197.464C129.424 197.112 129.712 196.696 129.904 196.216C130.096 195.736 130.192 195.16 130.192 194.488C130.192 193.048 129.632 191.96 128.512 191.224C127.392 190.488 125.824 190.12 123.808 190.12C121.216 190.12 119.104 190.712 117.472 191.896C115.84 193.048 114.64 194.632 113.872 196.648C113.104 198.632 112.72 200.888 112.72 203.416C112.72 205.08 112.816 206.776 113.008 208.504C113.2 210.232 113.504 211.864 113.92 213.4L109.984 214.024C109.504 212.456 109.136 210.696 108.88 208.744C108.624 206.792 108.496 204.984 108.496 203.32C108.496 200.024 109.056 197.128 110.176 194.632C111.328 192.136 113.04 190.184 115.312 188.776C117.616 187.368 120.48 186.664 123.904 186.664ZM125.344 225.976C123.776 225.976 122.352 225.88 121.072 225.688C119.792 225.528 118.512 225.24 117.232 224.824C115.984 224.408 114.576 223.848 113.008 223.144L115.264 219.928C116.256 220.408 117.248 220.84 118.24 221.224C119.264 221.608 120.336 221.912 121.456 222.136C122.608 222.36 123.872 222.472 125.248 222.472C126.528 222.472 127.568 222.28 128.368 221.896C129.168 221.512 129.76 220.984 130.144 220.312C130.56 219.64 130.768 218.888 130.768 218.056C130.768 217.064 130.416 216.136 129.712 215.272C129.04 214.376 128.048 213.704 126.736 213.256L130.24 211.192C131.2 211.608 132.016 212.152 132.688 212.824C133.392 213.496 133.92 214.264 134.272 215.128C134.656 215.992 134.848 216.952 134.848 218.008C134.848 219.576 134.496 220.952 133.792 222.136C133.088 223.352 132.032 224.296 130.624 224.968C129.248 225.64 127.488 225.976 125.344 225.976ZM133.678 173.368C134.894 173.368 135.95 173.496 136.846 173.752C137.774 174.008 138.59 174.408 139.294 174.952C140.19 175.624 140.894 176.424 141.406 177.352C141.918 178.248 142.286 179.432 142.51 180.904C142.734 182.344 142.846 184.248 142.846 186.616V213.832H138.718V187.816C138.718 186.152 138.67 184.712 138.574 183.496C138.51 182.28 138.366 181.256 138.142 180.424C137.95 179.56 137.662 178.872 137.278 178.36C136.894 177.848 136.414 177.448 135.838 177.16C135.294 176.872 134.606 176.728 133.774 176.728C133.07 176.728 132.382 176.888 131.71 177.208C131.006 177.496 130.43 177.976 129.982 178.648C129.534 179.288 129.31 180.168 129.31 181.288C129.31 181.576 129.342 181.88 129.406 182.2C129.438 182.488 129.47 182.776 129.502 183.064L125.47 183.784C125.406 183.4 125.342 183.016 125.278 182.632C125.214 182.216 125.182 181.832 125.182 181.48C125.182 179.656 125.582 178.152 126.382 176.968C127.15 175.752 128.19 174.856 129.502 174.28C130.782 173.672 132.174 173.368 133.678 173.368ZM167.938 227.102C165.61 224.164 163.641 220.727 162.032 216.789C160.422 212.852 159.618 208.773 159.618 204.555C159.618 200.836 160.219 197.273 161.422 193.867C162.828 189.914 165 185.977 167.938 182.055H170.961C169.071 185.305 167.821 187.625 167.211 189.016C166.258 191.172 165.508 193.422 164.961 195.766C164.289 198.688 163.953 201.625 163.953 204.578C163.953 212.094 166.289 219.602 170.961 227.102H167.938ZM200.12 197.477H197.191C197.191 195.695 196.823 194.234 196.089 193.094C195.214 191.734 193.933 191.055 192.245 191.055C190.542 191.055 189.253 191.727 188.378 193.07C187.644 194.211 187.277 195.68 187.277 197.477H184.347C184.347 194.852 185.003 192.758 186.316 191.195C187.722 189.523 189.698 188.688 192.245 188.688C194.777 188.688 196.745 189.531 198.152 191.219C199.464 192.797 200.12 194.883 200.12 197.477ZM236.709 204.555C236.709 208.383 235.74 211.469 233.803 213.812C231.725 216.312 228.811 217.562 225.061 217.562C221.295 217.562 218.373 216.32 216.295 213.836C214.357 211.523 213.389 208.43 213.389 204.555H217.725C217.725 207.227 218.264 209.398 219.342 211.07C220.639 213.07 222.545 214.07 225.061 214.07C227.561 214.07 229.451 213.07 230.732 211.07C231.826 209.367 232.373 207.195 232.373 204.555H236.709ZM265.938 197.477H263.009C263.009 195.695 262.642 194.234 261.907 193.094C261.032 191.734 259.751 191.055 258.063 191.055C256.36 191.055 255.071 191.727 254.196 193.07C253.462 194.211 253.095 195.68 253.095 197.477H250.165C250.165 194.852 250.821 192.758 252.134 191.195C253.54 189.523 255.517 188.688 258.063 188.688C260.595 188.688 262.563 189.531 263.97 191.219C265.282 192.797 265.938 194.883 265.938 197.477ZM283.543 227.102H280.519C285.191 219.602 287.527 212.094 287.527 204.578C287.527 201.641 287.191 198.727 286.519 195.836C285.988 193.492 285.246 191.242 284.293 189.086C283.683 187.68 282.426 185.336 280.519 182.055H283.543C286.48 185.977 288.652 189.914 290.058 193.867C291.262 197.273 291.863 200.836 291.863 204.555C291.863 208.773 291.051 212.852 289.426 216.789C287.816 220.727 285.855 224.164 283.543 227.102Z" fill="black"/>
</svg>
