<?xml version="1.0" encoding="UTF-8"?><svg id="Layer_1" xmlns="http://www.w3.org/2000/svg" xmlns:xlink="http://www.w3.org/1999/xlink" viewBox="0 0 500 500"><defs><style>.cls-1,.cls-2{fill:none;}.cls-2{stroke:#ffcd7a;stroke-miterlimit:10;stroke-width:1.04px;}.cls-3{fill:#f27421;}.cls-4{clip-path:url(#clippath-1);}.cls-5{fill:#fff;}.cls-6{opacity:.29;}.cls-7{fill:#ffbf00;}.cls-8{clip-path:url(#clippath);}</style><clipPath id="clippath"><ellipse class="cls-2" cx="765.13" cy="248.15" rx="176.09" ry="58.64" transform="translate(-10.53 35.17) rotate(-2.62)"/></clipPath><clipPath id="clippath-1"><rect class="cls-1" x="569.88" y="44.78" width="368.63" height="368.94" transform="translate(127.89 707.9) rotate(-54.3)"/></clipPath></defs><rect class="cls-7" x="-6.49" y="-13.88" width="512.98" height="527.75"/><circle class="cls-5" cx="204.94" cy="248.72" r="11.11"/><circle class="cls-5" cx="251.14" cy="248.72" r="11.11"/><circle class="cls-5" cx="297.34" cy="248.72" r="11.11"/><circle class="cls-5" cx="251.14" cy="211.96" r="11.11"/><circle class="cls-5" cx="297.34" cy="211.91" r="11.11"/><path class="cls-5" d="M214.7,277.08v21.52h-6.45v-2.02c-1.42,1.64-3.53,2.62-6.41,2.62-5.64,0-10.28-4.95-10.28-11.36s4.65-11.36,10.28-11.36c2.88,0,4.99.99,6.41,2.62v-2.02h6.45ZM208.25,287.84c0-3.23-2.15-5.25-5.12-5.25s-5.12,2.02-5.12,5.25,2.15,5.25,5.12,5.25,5.12-2.02,5.12-5.25Z"/><path class="cls-5" d="M235.49,292.14c0,4.95-4.3,7.06-8.95,7.06-4.3,0-7.57-1.64-9.25-5.12l5.59-3.18c.56,1.64,1.76,2.54,3.66,2.54,1.55,0,2.32-.47,2.32-1.33,0-2.37-10.59-1.12-10.59-8.56,0-4.69,3.96-7.06,8.43-7.06,3.49,0,6.58,1.55,8.39,4.6l-5.51,2.97c-.6-1.12-1.46-1.89-2.88-1.89-1.12,0-1.81.43-1.81,1.21,0,2.45,10.59.82,10.59,8.78Z"/><path class="cls-5" d="M258.64,277.08v21.52h-6.45v-2.02c-1.16,1.59-3.31,2.62-6.15,2.62-4.35,0-8.05-3.1-8.05-8.91v-13.21h6.45v12.26c0,2.67,1.68,3.92,3.74,3.92,2.37,0,4-1.38,4-4.43v-11.75h6.45Z"/><path class="cls-5" d="M261.87,287.84c0-6.41,4.86-11.36,11.4-11.36,4.17,0,7.87,2.19,9.72,5.51l-5.64,3.27c-.73-1.51-2.28-2.41-4.17-2.41-2.8,0-4.86,2.02-4.86,4.99s2.06,4.99,4.86,4.99c1.89,0,3.49-.9,4.17-2.41l5.64,3.23c-1.85,3.36-5.51,5.55-9.72,5.55-6.54,0-11.4-4.95-11.4-11.36Z"/><path class="cls-5" d="M306.79,298.6h-6.45v-2.02c-1.42,1.64-3.53,2.62-6.41,2.62-5.64,0-10.28-4.95-10.28-11.36s4.65-11.36,10.28-11.36c2.88,0,4.99.99,6.41,2.62v-10.63h6.45v30.12M300.34,287.84c0-3.23-2.15-5.25-5.12-5.25s-5.12,2.02-5.12,5.25,2.15,5.25,5.12,5.25,5.12-2.02,5.12-5.25Z"/><g class="cls-8"><g class="cls-6"><g class="cls-4"><g id="_Grid_Repeat_"><circle class="cls-3" cx="500.76" cy="243.82" r="2.01"/><circle class="cls-3" cx="497.48" cy="248.37" r="2.01"/></g><g id="_Grid_Repeat_-2"><circle class="cls-3" cx="494.56" cy="252.44" r="2.01"/><circle class="cls-3" cx="499.14" cy="255.73" r="2.01"/><circle class="cls-3" cx="491.29" cy="256.99" r="2.01"/><circle class="cls-3" cx="495.87" cy="260.28" r="2.01"/></g><g id="_Grid_Repeat_-3"><circle class="cls-3" cx="500.87" cy="263.88" r="2.01"/></g><g id="_Grid_Repeat_-4"><circle class="cls-3" cx="497.94" cy="267.94" r="2.01"/><circle class="cls-3" cx="494.67" cy="272.5" r="2.01"/><circle class="cls-3" cx="499.25" cy="275.79" r="2.01"/></g><g id="_Grid_Repeat_-5"><circle class="cls-3" cx="491.75" cy="276.57" r="2.01"/><circle class="cls-3" cx="496.33" cy="279.86" r="2.01"/><circle class="cls-3" cx="488.47" cy="281.12" r="2.01"/><circle class="cls-3" cx="493.05" cy="284.41" r="2.01"/></g><g id="_Grid_Repeat_-6"><circle class="cls-3" cx="501.32" cy="283.45" r="2.01"/><circle class="cls-3" cx="498.05" cy="288" r="2.01"/></g></g></g></g><ellipse class="cls-2" cx="765.13" cy="248.15" rx="176.09" ry="58.64" transform="translate(-10.53 35.17) rotate(-2.62)"/></svg>